<?xml version="1.0" encoding="utf-8"?>
<!-- Generator: Adobe Illustrator 16.0.0, SVG Export Plug-In . SVG Version: 6.00 Build 0)  -->
<!DOCTYPE svg PUBLIC "-//W3C//DTD SVG 1.1//EN" "http://www.w3.org/Graphics/SVG/1.1/DTD/svg11.dtd">
<svg version="1.1" id="Layer_1" xmlns="http://www.w3.org/2000/svg" xmlns:xlink="http://www.w3.org/1999/xlink" x="0px" y="0px"
	 width="90.066px" height="38.824px" viewBox="0 0 90.066 38.824" enable-background="new 0 0 90.066 38.824" xml:space="preserve">
<g id="Warstwa_2" transform="translate(0.026)">
	<g id="Warstwa_1" transform="translate(-0.026)">
		<path id="Path_2546" fill="#506DA5" d="M3.637,37.65c-0.25,0.004-0.452,0.204-0.458,0.453c0.006,0.251,0.208,0.453,0.458,0.459
			c0.121,0,0.237-0.05,0.32-0.139c0.085-0.085,0.133-0.199,0.133-0.32c0.002-0.12-0.046-0.236-0.133-0.319
			C3.873,37.697,3.757,37.65,3.637,37.65"/>
		<path id="Path_2547" fill="#506DA5" d="M4.879,37.65c-0.12,0.001-0.235,0.049-0.32,0.134c-0.084,0.085-0.13,0.2-0.127,0.319
			c0.006,0.251,0.208,0.453,0.458,0.459c0.121,0,0.237-0.05,0.32-0.139c0.172-0.188,0.16-0.479-0.027-0.651
			C5.1,37.696,4.991,37.652,4.879,37.65"/>
		<path id="Path_2548" fill="#506DA5" d="M44.049,31.688l0.028,4.483h-7.845l1.154-1.1v-0.216c0-0.386-0.101-0.765-0.293-1.1
			c-0.193-0.333-0.469-0.61-0.8-0.806c-0.684-0.395-1.525-0.395-2.209,0c-0.334,0.194-0.61,0.475-0.8,0.812
			c-0.195,0.334-0.299,0.714-0.301,1.1V35.1l1.139,1.055h-9.104l-0.027-3.557h-1.426c-0.501-0.018-0.999,0.085-1.452,0.301
			c-0.353,0.174-0.645,0.453-0.834,0.8c-0.324,0.6-0.37,1.312-0.127,1.948c0.068,0.203,0.176,0.391,0.315,0.553h-7.251l-0.028-4.539
			l-0.757,0.027l0.028,5.246h21.157c0.116,0.004,0.233-0.017,0.342-0.061c0.09-0.043,0.159-0.121,0.192-0.215
			c0.063,0.086,0.144,0.158,0.237,0.21c0.109,0.048,0.229,0.071,0.348,0.065h9.101v-5.274L44.049,31.688z M23.566,36.171
			c-0.486,0.045-0.973-0.093-1.363-0.387c-0.275-0.256-0.425-0.619-0.409-0.994c-0.008-0.373,0.143-0.731,0.414-0.988
			c0.379-0.301,0.859-0.444,1.342-0.399l0.679-0.028v2.761L23.566,36.171z M35.196,36.121l-1.446-1.331
			c0.021-0.239,0.096-0.47,0.221-0.674c0.13-0.207,0.308-0.378,0.52-0.5c0.428-0.235,0.946-0.235,1.375,0
			c0.212,0.12,0.391,0.292,0.519,0.5c0.12,0.199,0.199,0.421,0.232,0.651L35.196,36.121z"/>
		<path id="Path_2549" fill="#506DA5" d="M22.401,32.168c0.122,0.002,0.238-0.048,0.32-0.138c0.086-0.085,0.134-0.2,0.133-0.32
			c0.003-0.119-0.046-0.233-0.133-0.315c-0.083-0.087-0.199-0.135-0.32-0.133c-0.119,0-0.233,0.045-0.319,0.127
			c-0.172,0.174-0.169,0.454,0.005,0.625c0.005,0.006,0.011,0.012,0.017,0.017c0.082,0.089,0.199,0.14,0.32,0.138"/>
		<path id="Path_2550" fill="#506DA5" d="M23.644,32.168c0.122,0.002,0.238-0.048,0.32-0.138c0.086-0.085,0.134-0.2,0.133-0.32
			c0.003-0.119-0.046-0.233-0.133-0.315c-0.083-0.087-0.199-0.135-0.32-0.133c-0.119,0-0.233,0.045-0.319,0.127
			c-0.178,0.168-0.185,0.448-0.017,0.625c0.005,0.006,0.011,0.012,0.017,0.017C23.406,32.119,23.523,32.17,23.644,32.168"/>
		<path id="Path_2551" fill="#506DA5" d="M45.877,31.688l0.027,5.246h0.758l-0.035-5.274L45.877,31.688z"/>
		<path id="Path_2552" fill="#506DA5" d="M63.432,37.447c-0.12-0.003-0.236,0.045-0.32,0.133c-0.09,0.082-0.14,0.198-0.138,0.32
			c-0.003,0.123,0.048,0.242,0.138,0.326c0.086,0.082,0.201,0.128,0.32,0.127c0.12,0,0.236-0.047,0.32-0.134
			c0.081-0.087,0.127-0.2,0.127-0.319C63.879,37.652,63.68,37.45,63.432,37.447"/>
		<path id="Path_2553" fill="#506DA5" d="M87.128,31.688l0.028,4.483h-8.014v-3.556h-0.752v3.5h-0.806
			c-0.28,0.02-0.555-0.088-0.746-0.293c-0.19-0.258-0.282-0.576-0.26-0.896v-2.1l-0.758,0.028v2.07
			c0.022,0.316-0.057,0.632-0.226,0.9c-0.149,0.193-0.386,0.301-0.63,0.287h-0.922L74.016,32.8l-0.757,0.028v3.258h-7.527
			c-0.099,0.006-0.198-0.016-0.287-0.061c-0.066-0.059-0.112-0.136-0.133-0.222c-0.059-0.212-0.107-0.428-0.144-0.646
			c-0.067-0.449-0.202-0.885-0.4-1.292c-0.173-0.296-0.413-0.547-0.7-0.734c-0.254-0.167-0.533-0.292-0.827-0.37
			c-0.304-0.077-0.615-0.116-0.929-0.115c-0.314-0.005-0.628,0.032-0.933,0.109L61.302,32.8l0.166,0.734h0.072
			c0.238-0.069,0.485-0.103,0.733-0.101c0.24-0.001,0.479,0.029,0.712,0.088c0.219,0.051,0.426,0.139,0.613,0.261
			c0.208,0.14,0.377,0.329,0.491,0.552c0.146,0.326,0.246,0.67,0.3,1.021c-0.009,0.083,0.003,0.166,0.033,0.244
			c0.021,0.19,0.074,0.377,0.155,0.551H54.478v-4.535l-0.757,0.027v4.49c0,1.292-0.552,1.922-1.723,1.922
			c-0.447,0.018-0.888-0.116-1.248-0.381c-0.345-0.324-0.525-0.787-0.491-1.259c0.012-0.476,0.09-0.946,0.232-1.399v-0.121h-0.763
			v0.051c-0.144,0.484-0.222,0.985-0.231,1.49c-0.059,0.691,0.211,1.371,0.729,1.834c0.513,0.38,1.14,0.574,1.778,0.552
			c0.593,0.025,1.177-0.151,1.657-0.5c0.437-0.352,0.715-0.862,0.772-1.419h20.516c0.289,0.005,0.575-0.067,0.827-0.211
			c0.2-0.115,0.36-0.29,0.458-0.5c0.119,0.209,0.292,0.382,0.5,0.5c0.264,0.145,0.561,0.217,0.861,0.211h10.332v-5.243
			L87.128,31.688z"/>
		<path id="Path_2554" fill="#506DA5" d="M88.956,31.688l0.021,5.246h0.757l-0.027-5.274L88.956,31.688z"/>
		<path id="Path_2555" fill="#506DA5" d="M8.105,32.72c-0.711-0.098-1.367,0.399-1.465,1.11c-0.017,0.123-0.017,0.248,0.002,0.37v2
			H1.626c-0.228,0.019-0.453-0.05-0.63-0.193c-0.142-0.166-0.211-0.382-0.193-0.6V33.46L0.014,33.48v1.971
			c-0.104,0.71,0.387,1.371,1.097,1.475c0.114,0.018,0.23,0.02,0.345,0.006h5.991v-2.693c-0.019-0.219,0.055-0.437,0.2-0.601
			c0.183-0.149,0.418-0.217,0.652-0.188h0.977l0.028,2.971h0.751l-0.029-3.646L8.105,32.72z"/>
		<rect id="Rectangle_134" x="11.462" y="33.172" fill="#506DA5" width="0.772" height="5.391"/>
		<g>
			<g>
				<path id="Path_2556" fill="#506DA5" d="M21.623,16.401h-5.169v5.164h2.248v-2.921h2.921V16.401z"/>
			</g>
			<rect id="Rectangle_135" x="20.513" y="20.443" fill="#506DA5" width="1.812" height="1.812"/>
			<rect id="Rectangle_136" x="19.607" y="24.314" fill="#506DA5" width="1.292" height="1.293"/>
			<rect id="Rectangle_137" x="12.986" y="24.966" fill="#506DA5" width="1.292" height="2.265"/>
			<rect id="Rectangle_138" x="6.514" y="24.237" fill="#506DA5" width="1.292" height="1.292"/>
			<rect id="Rectangle_139" x="1.699" y="19.416" fill="#506DA5" width="1.292" height="1.292"/>
			<rect id="Rectangle_140" x="0.014" y="12.966" fill="#506DA5" width="2.071" height="1.292"/>
			<rect id="Rectangle_141" x="1.792" y="6.494" fill="#506DA5" width="1.292" height="1.292"/>
			<rect id="Rectangle_142" x="6.558" y="1.734" fill="#506DA5" width="1.292" height="1.292"/>
			<rect id="Rectangle_143" x="13.069" fill="#506DA5" width="1.292" height="2.264"/>
			<rect id="Rectangle_144" x="19.536" y="1.701" fill="#506DA5" width="1.292" height="1.292"/>
			<rect id="Rectangle_145" x="24.296" y="6.461" fill="#506DA5" width="1.292" height="1.292"/>
			<rect id="Rectangle_146" x="25.063" y="12.977" fill="#506DA5" width="2.265" height="1.292"/>
			<rect id="Rectangle_147" x="24.296" y="19.477" fill="#506DA5" width="1.292" height="1.292"/>
			<rect id="Rectangle_148" x="15.51" y="23.188" fill="#506DA5" width="1.811" height="2.203"/>
			<rect id="Rectangle_149" x="23.34" y="15.54" fill="#506DA5" width="2.203" height="1.811"/>
			<rect id="Rectangle_150" x="23.34" y="9.874" fill="#506DA5" width="2.203" height="1.811"/>
			<rect id="Rectangle_151" x="10.026" y="23.188" fill="#506DA5" width="1.812" height="2.203"/>
			<rect id="Rectangle_152" x="5.029" y="20.455" fill="#506DA5" width="1.812" height="1.811"/>
			<rect id="Rectangle_153" x="20.513" y="4.97" fill="#506DA5" width="1.812" height="1.812"/>
			<rect id="Rectangle_154" x="15.687" y="1.833" fill="#506DA5" width="1.812" height="2.203"/>
			<rect id="Rectangle_155" x="1.892" y="15.634" fill="#506DA5" width="2.203" height="1.812"/>
			<rect id="Rectangle_156" x="1.892" y="9.874" fill="#506DA5" width="2.203" height="1.811"/>
			<rect id="Rectangle_157" x="10.021" y="1.833" fill="#506DA5" width="1.812" height="2.203"/>
			<rect id="Rectangle_158" x="5.029" y="4.97" fill="#506DA5" width="1.812" height="1.812"/>
			<path id="Path_2557" fill="#506DA5" d="M5.719,10.829h5.17V5.666H8.64v2.916H5.719V10.829z"/>
			<rect id="Rectangle_159" x="12.55" y="18.975" fill="#506DA5" width="2.248" height="3.689"/>
			<rect id="Rectangle_160" x="4.625" y="12.491" fill="#506DA5" width="3.688" height="2.248"/>
			<rect id="Rectangle_161" x="19.033" y="12.491" fill="#506DA5" width="3.688" height="2.248"/>
			<rect id="Rectangle_162" x="12.55" y="4.567" fill="#506DA5" width="2.248" height="3.689"/>
			<path id="Path_2558" fill="#506DA5" d="M16.46,5.66v2.756l-0.006,0.166v2.248h5.169V8.581h-2.921V5.66H16.46z"/>
			<path id="Path_2559" fill="#506DA5" d="M10.838,21.614v-5.163H5.669v2.242H8.59v2.921H10.838z"/>
		</g>
		<path id="Path_2560" fill="#506DA5" d="M48.815,16.627l0.287-0.11c0.596-0.219,1.154-0.526,1.657-0.911
			c0.908-0.699,1.56-1.68,1.85-2.789c0.154-0.578,0.232-1.174,0.232-1.773c0.013-0.848-0.142-1.691-0.453-2.48
			c-0.299-0.713-0.77-1.341-1.37-1.828c-0.696-0.543-1.497-0.938-2.352-1.16c-1.109-0.291-2.254-0.428-3.4-0.409h-8.6v16.92H39.7
			v-4.97h5.814l3.275,4.97h3.728L48.815,16.627z M48.515,13.606c-0.397,0.318-0.854,0.556-1.342,0.7
			c-0.592,0.17-1.206,0.252-1.822,0.243H39.7v-6.82h5.654c1.119-0.077,2.232,0.221,3.164,0.845c0.735,0.594,1.144,1.502,1.101,2.446
			c0.007,0.494-0.085,0.984-0.271,1.441c-0.183,0.427-0.465,0.804-0.823,1.1"/>
		<path id="Path_2561" fill="#506DA5" d="M70.335,19.471H58.821v-5.329h9.99v-2.419h-9.99V7.77h11.282V5.163H55.784v16.899h14.551
			V19.471z"/>
		<path id="Path_2562" fill="#506DA5" d="M89.608,8.56c-0.297-0.714-0.768-1.343-1.37-1.828c-0.694-0.543-1.493-0.938-2.347-1.16
			c-1.111-0.291-2.258-0.428-3.407-0.409h-8.6v16.926h3.037v-4.974h5.814l3.27,4.97h3.728l-3.693-5.439l0.287-0.11
			c0.594-0.221,1.152-0.528,1.656-0.911c0.456-0.358,0.852-0.787,1.171-1.27c0.309-0.472,0.539-0.991,0.686-1.535
			c0.152-0.58,0.229-1.178,0.226-1.778c0.014-0.849-0.142-1.692-0.458-2.48 M86.564,12.483c-0.183,0.427-0.465,0.804-0.822,1.1
			c-0.398,0.317-0.854,0.555-1.343,0.7c-0.594,0.17-1.21,0.252-1.828,0.243h-5.648v-6.8h5.648c1.122-0.08,2.237,0.218,3.171,0.845
			c0.734,0.594,1.143,1.502,1.1,2.446c0.004,0.493-0.088,0.983-0.271,1.441"/>
	</g>
</g>
</svg>
